<?xml version="1.0" standalone="no"?><!DOCTYPE svg PUBLIC "-//W3C//DTD SVG 1.1//EN" "http://www.w3.org/Graphics/SVG/1.1/DTD/svg11.dtd"><svg t="1659927013354" class="icon" viewBox="0 0 1024 1024" version="1.1" xmlns="http://www.w3.org/2000/svg" p-id="2864" xmlns:xlink="http://www.w3.org/1999/xlink" width="200" height="200"><defs><style type="text/css"></style></defs><path d="M894.814316 904.434526l83.240421-183.134315-13.824-13.204211c-0.485053-0.458105-45.648842-47.589053-47.939369-185.263158-0.134737-7.922526-0.134737-33.953684-0.134736-55.996631-30.693053 15.306105-70.090105 19.887158-106.09179 19.887157-92.752842 0-163.624421-23.983158-210.647579-71.275789a192.512 192.512 0 0 1-27.944421-36.513684H377.263158v377.263158c342.662737 0 403.105684 51.092211 494.592 128.377263 7.922526 6.682947 15.521684 13.312 22.959158 19.86021z" fill="#85C3DE" p-id="2865"></path><path d="M326.063158 282.947368c0 34.250105-13.231158 44.463158-29.642105 44.463158s-29.642105-10.213053-29.642106-44.463158c0-34.223158 13.231158-44.463158 29.642106-44.463157s29.642105 10.24 29.642105 44.463157zM269.473684 430.295579v311.646316L190.275368 916.210526h59.203369L323.368421 753.637053V377.263158h-26.947368c-119.403789 0-172.732632-53.382737-185.505685-107.789474h35.624421c51.092211 0 68.581053-15.764211 120.535579-62.544842 12.773053-11.506526 28.079158-25.276632 47.023158-41.741474l18.351158-15.952842-69.658947-99.139368-44.085895 30.989474 41.768421 59.472842c-11.183158 9.862737-20.884211 18.593684-29.480421 26.327579C180.736 212.156632 176.235789 215.578947 146.539789 215.578947H53.894737v26.947369c0 88.710737 66.910316 178.149053 215.578947 187.769263z m216.710737-161.414737c2.290526 71.733895 28.698947 136.326737 75.048421 182.918737C618.711579 509.628632 702.437053 538.947368 810.091789 538.947368c18.593684 0 36.190316-1.158737 52.628211-3.449263 3.745684 111.265684 33.630316 170.334316 51.496421 196.015158l-38.507789 84.722526C782.174316 742.049684 688.774737 700.631579 377.263158 700.631579v53.894737c34.277053 0 65.697684 0.512 94.639158 1.509052L374.595368 970.105263h59.203369l96.013474-211.240421c66.182737 4.338526 117.005474 11.829895 157.911578 22.016L626.229895 916.210526h59.176421l54.16421-119.134315c47.616 18.405053 79.737263 42.091789 113.125053 69.739789L805.753263 970.105263h59.203369l113.071157-248.778105-13.824-13.204211c-0.485053-0.458105-45.648842-47.589053-47.939368-185.263158C985.168842 498.553263 1024 447.811368 1024 377.263158c0-95.205053-66.506105-161.684211-161.684211-161.684211v53.894737c65.482105 0 107.789474 42.307368 107.789474 107.789474 0 89.088-87.013053 107.789474-160.013474 107.789474-92.752842 0-163.624421-23.983158-210.647578-71.27579-30.315789-30.504421-45.891368-65.832421-53.35579-98.735158 11.210105 6.952421 22.932211 13.338947 35.274105 19.186527l23.04-48.720843c-92.106105-43.654737-148.992-128.646737-219.243789-243.981473l-46.026105 28.05221c49.448421 81.246316 92.968421 148.506947 147.051789 199.302737z" fill="#231F20" p-id="2866"></path></svg>