<?xml version="1.0" standalone="no"?><!DOCTYPE svg PUBLIC "-//W3C//DTD SVG 1.1//EN" "http://www.w3.org/Graphics/SVG/1.1/DTD/svg11.dtd"><svg t="1659926924173" class="icon" viewBox="0 0 1024 1024" version="1.1" xmlns="http://www.w3.org/2000/svg" p-id="1849" xmlns:xlink="http://www.w3.org/1999/xlink" width="200" height="200"><defs><style type="text/css"></style></defs><path d="M366.376421 344.441263l152.980211-152.98021c43.142737-43.142737 141.204211-9.216 270.201263 115.738947-15.225263 9.835789-25.114947 15.818105-44.13979 32.256s-38.076632 35.489684-59.418947 56.832c-4.203789 4.203789-51.173053 53.221053-78.740211 82.027789-10.805895-12.126316-22.743579-24.171789-34.654315-36.082526L493.136842 362.792421l-54.218105 54.218105-72.542316-72.569263zM862.315789 512c0 46.834526-45.352421 80.842105-107.789473 80.842105-108.948211 0-189.359158-28.806737-267.129263-56.697263C414.100211 509.871158 344.872421 485.052632 258.182737 485.052632 80.788211 485.052632 0 588.126316 0 683.897263h53.894737C73.216 659.779368 135.302737 646.736842 177.340632 646.736842c77.338947 0 223.124211 23.282526 291.893894 47.912421C547.462737 722.701474 615.989895 754.526316 734.315789 754.526316 862.315789 754.526316 916.210526 670.315789 916.210526 512h-53.894737z" fill="#FF8787" p-id="1850"></path><path d="M552.421053 1024c-69.766737 0-113.825684-13.958737-156.402527-27.459368-54.487579-17.273263-110.807579-35.004632-232.421052-26.516211l-3.826527-53.733053c131.718737-9.458526 195.934316 10.967579 252.52379 28.887579 42.226526 13.365895 78.686316 24.926316 140.126316 24.926316 92.752842 0 148.210526-57.936842 148.210526-113.960421 0-16.949895-5.524211-101.618526-114.634105-101.618526-64.970105 0-112.747789 23.336421-163.328 48.02021C365.325474 830.571789 300.301474 862.315789 204.288 862.315789 85.908211 862.315789 0 787.294316 0 683.897263 0 588.126316 80.788211 485.052632 258.182737 485.052632c86.689684 0 155.917474 24.818526 229.214316 51.09221 45.810526 16.410947 92.564211 33.172211 145.488842 44.166737 9.000421-7.033263 13.850947-16.276211 13.850947-26.758737 0-37.187368-37.672421-74.859789-74.13221-111.265684l-3.287579-3.287579 38.103579-38.103579 3.260631 3.287579C652.853895 446.275368 700.631579 494.026105 700.631579 553.552842c0 12.719158-2.802526 24.926316-7.976421 36.109474A594.997895 594.997895 0 0 0 754.526316 592.842105c62.437053 0 107.789474-34.007579 107.789473-80.842105 0-58.853053-52.870737-110.268632-108.840421-164.702316l-8.057263-7.841684c-19.024842 16.437895-38.076632 35.489684-59.418947 56.832l-38.103579-38.103579c74.805895-74.832842 134.898526-134.898526 268.314947-141.931789V55.619368c-63.407158 7.787789-120.993684 39.424-121.667368 39.801264l-15.818105 8.811789-14.120421-11.344842C731.701895 66.452211 709.712842 53.894737 673.684211 53.894737c-41.418105 0-74.347789 25.869474-109.190737 53.301895-26.624 20.911158-54.137263 42.549895-86.851369 53.194105L469.342316 161.684211h-69.093053l-105.525895 105.525894-38.103579-38.130526L324.015158 161.684211H161.684211V107.789474h303.104c22.231579-8.272842 43.708632-25.168842 66.398315-42.981053C569.829053 34.438737 613.618526 0 673.684211 0c48.909474 0 81.408 17.946947 110.888421 40.097684C813.702737 26.300632 877.729684 0 943.157895 0h26.947368v323.368421h-53.894737v-53.167158c-54.164211 3.098947-92.914526 15.845053-127.002947 36.675369l1.832421 1.778526C852.587789 368.505263 916.210526 430.376421 916.210526 512c0 60.928-43.708632 109.945263-107.789473 127.622737V700.631579h53.894736v-53.894737h53.894737v53.894737h53.894737v53.894737h-53.894737v53.894737h-53.894737v-53.894737h-53.894736c-29.722947 0-53.894737-24.171789-53.894737-53.894737v-53.894737c-118.325895 0-207.063579-31.797895-285.318737-59.877053C400.437895 562.229895 335.494737 538.947368 258.182737 538.947368 117.059368 538.947368 53.894737 611.732211 53.894737 683.897263 53.894737 757.221053 115.738947 808.421053 204.288 808.421053c11.910737 0 23.228632-0.538947 34.034526-1.536C248.454737 796.321684 269.473684 770.640842 269.473684 739.166316c0-33.118316-43.088842-70.979368-58.152421-81.596632l30.935579-44.139789c8.299789 5.793684 81.111579 58.664421 81.111579 125.736421 0 19.429053-4.527158 37.052632-10.994526 52.304842 30.773895-10.051368 58.314105-23.498105 86.662737-37.349053C452.877474 727.848421 508.577684 700.631579 585.997474 700.631579 702.410105 700.631579 754.526316 778.725053 754.526316 856.144842 754.526316 938.657684 678.912 1024 552.421053 1024z m-21.180632-623.104L493.136842 362.792421l137.889684-137.889684 38.103579 38.103579-137.889684 137.889684z m-126.760421-18.351158l-38.103579-38.103579 152.980211-152.98021 38.103579 38.103579-152.980211 152.98021z m282.004211-218.624c15.494737-9.754947 43.331368-31.447579 43.331368-31.447579-25.734737-27.809684-49.556211-33.333895-67.368421-29.07621-19.240421 4.608-37.753263 24.602947-37.753263 24.602947s42.253474 22.447158 61.790316 35.920842z" fill="#231F20" p-id="1851"></path></svg>