<?xml version="1.0" standalone="no"?><!DOCTYPE svg PUBLIC "-//W3C//DTD SVG 1.1//EN" "http://www.w3.org/Graphics/SVG/1.1/DTD/svg11.dtd"><svg t="1659926976810" class="icon" viewBox="0 0 1024 1024" version="1.1" xmlns="http://www.w3.org/2000/svg" p-id="2429" xmlns:xlink="http://www.w3.org/1999/xlink" width="200" height="200"><defs><style type="text/css"></style></defs><path d="M548.378947 646.736842a952.32 952.32 0 0 1 140.90779-161.68421H107.789474c0 107.600842 0 107.600842-63.649685 169.283368l-13.069473 12.665263L66.721684 754.526316h417.172211c20.345263-41.472 43.654737-77.446737 64.485052-107.789474z" fill="#F7C768" p-id="2430"></path><path d="M608.256 144.734316C555.762526 115.577263 506.098526 107.789474 485.052632 107.789474V53.894737c32.579368 0 91.270737 11.452632 149.369263 43.735579 75.290947 41.822316 130.694737 94.531368 171.385263 150.878316C755.873684 288.013474 697.101474 323.368421 646.736842 323.368421h-107.789474v-53.894737h107.789474c20.506947 0 48.424421-11.210105 80.437895-31.285895a471.04 471.04 0 0 0-118.918737-93.453473zM832.673684 342.231579c-16.384 0-29.642105 10.24-29.642105 44.463158 0 34.250105 13.231158 44.463158 29.642105 44.463158s29.642105-10.213053 29.642105-44.463158c0-34.223158-13.231158-44.463158-29.642105-44.463158zM1024 619.789474C1024 347.109053 901.066105 122.448842 686.753684 3.395368l-26.165895 47.104C914.324211 191.461053 964.688842 440.400842 969.647158 592.842105h-84.506947c-17.92-35.624421-45.352421-69.12-87.013053-101.995789l-16.788211-13.285053-16.734315 13.392842c-66.128842 52.897684-134.629053 127.083789-187.311158 209.677474H102.965895l-8.272842-20.318316C159.043368 617.013895 161.684211 603.109053 161.684211 485.052632v-53.894737h485.052631v-53.894737H161.684211c0-80.384 14.309053-110.026105 66.586947-137.916632l-25.384421-47.535158C123.365053 234.226526 107.789474 291.920842 107.789474 377.263158v107.789474c0 107.600842 0 107.600842-63.649685 169.283368l-13.069473 12.665263L110.618947 862.315789h58.206316l-43.897263-107.789473h103.477895l43.897263 107.789473h58.206316l-43.897263-107.789473h259.47621C508.981895 824.939789 485.052632 899.152842 485.052632 970.105263h53.894736c0-68.688842 27.270737-144.060632 68.958316-215.578947H687.157895c7.410526 0 13.473684 6.063158 13.473684 13.473684V862.315789h53.894737v-94.315789c0-37.160421-30.208-67.368421-67.368421-67.368421h-44.65179c40.771368-58.017684 89.438316-111.427368 138.913684-153.626947C841.512421 600.037053 862.315789 655.225263 862.315789 754.526316h53.894737c0-38.912-2.748632-74.482526-11.102315-107.789474H1024v-26.947368z" fill="#231F20" p-id="2431"></path></svg>