<?xml version="1.0" standalone="no"?><!DOCTYPE svg PUBLIC "-//W3C//DTD SVG 1.1//EN" "http://www.w3.org/Graphics/SVG/1.1/DTD/svg11.dtd"><svg t="1659926944535" class="icon" viewBox="0 0 1024 1024" version="1.1" xmlns="http://www.w3.org/2000/svg" p-id="2139" xmlns:xlink="http://www.w3.org/1999/xlink" width="200" height="200"><defs><style type="text/css"></style></defs><path d="M776.003368 646.736842c16.599579-99.947789 43.439158-181.086316 83.213474-256.538947l6.817684-12.934737H269.473684c-36.756211 0-53.894737 54.945684-53.894737 92.05221 0 46.753684 6.656 77.527579 70.278737 176.074106l84.533895 128.269473L498.876632 646.736842h277.126736z" fill="#FFAF6E" p-id="2140"></path><path d="M1024 0v404.210526c0 33.333895 0 134.736842-92.079158 134.736842h-13.824l-78.362947-109.056c-22.743579 49.906526-40.340211 103.046737-53.490527 162.950737h115.092211C937.310316 592.842105 970.105263 625.637053 970.105263 661.638737c0 60.631579-69.389474 154.300632-77.312 164.75621l-43.008-32.471579C875.466105 759.861895 916.210526 693.813895 916.210526 661.638737c0-5.982316-8.919579-14.901895-14.901894-14.901895h-125.332211C761.128421 736.121263 754.526316 840.569263 754.526316 970.105263h-53.894737c0-283.971368 31.097263-453.605053 110.888421-605.049263l20.318316-38.534737 112.801684 156.995369c14.443789-4.419368 25.465263-20.938105 25.465263-79.306106V0h53.894737z m-161.684211 161.684211h53.894737V0h-53.894737v80.842105c-17.381053-14.955789-38.184421-26.947368-80.842105-26.947368h-134.736842v53.894737h134.736842c37.672421 0 80.842105 40.906105 80.842105 53.894737z m-107.789473 0h-215.578948v53.894736h161.684211l53.894737-53.894736zM300.894316 766.544842L400.680421 916.210526h64.754526l-95.043368-142.551579L498.876632 646.736842h167.855157a1212.631579 1212.631579 0 0 1 9.431579-53.894737h-199.383579l-175.885473 173.702737z m109.97221-184.400842l-37.861052-38.319158-132.419369 130.802526C173.729684 571.095579 161.684211 529.812211 161.684211 469.315368 161.684211 398.578526 199.464421 323.368421 269.473684 323.368421h323.368421l53.894737-53.894737H269.473684c-6.709895 0-13.258105 0.565895-19.698526 1.482105C234.927158 249.451789 204.638316 215.578947 160.633263 215.578947 65.967158 215.578947 0 349.291789 0 469.315368c0 70.170947 16.141474 136.650105 49.232842 202.671158L6.197895 723.833263l41.472 34.41179 66.128842-79.737264-8.704-16.033684C83.105684 622.133895 53.894737 558.214737 53.894737 469.315368 53.894737 368.451368 106.765474 269.473684 160.633263 269.473684c13.231158 0 25.815579 9.889684 35.43579 20.533895C142.874947 321.967158 107.789474 388.500211 107.789474 469.315368c0 78.201263 19.698526 130.937263 93.642105 243.981474l-55.296 54.622316L280.899368 970.105263h64.754527l-130.048-195.072 195.260631-192.889263z" fill="#231F20" p-id="2141"></path></svg>