<?xml version="1.0" standalone="no"?><!DOCTYPE svg PUBLIC "-//W3C//DTD SVG 1.1//EN" "http://www.w3.org/Graphics/SVG/1.1/DTD/svg11.dtd"><svg t="1659926984925" class="icon" viewBox="0 0 1024 1024" version="1.1" xmlns="http://www.w3.org/2000/svg" p-id="2574" xmlns:xlink="http://www.w3.org/1999/xlink" width="200" height="200"><defs><style type="text/css"></style></defs><path d="M757.733053 485.052632H565.894737a80.842105 80.842105 0 0 0-80.842105 80.842105v215.578947c0 40.96 43.546947 99.678316 77.446736 139.210105C596.426105 960.215579 603.055158 970.105263 603.055158 970.105263H754.526316s15.144421-18.674526 45.891368-58.071579S862.315789 809.984 862.315789 717.608421c0-89.573053-47.993263-166.346105-104.582736-232.555789z" fill="#C3D686" p-id="2575"></path><path d="M538.947368 1024h-53.894736c0-32.794947 25.869474-87.417263 77.446736-103.316211C528.599579 881.152 485.052632 822.433684 485.052632 781.473684c0-44.570947 36.271158-80.842105 80.842105-80.842105h80.842105v53.894737h-80.842105a26.947368 26.947368 0 0 0-26.947369 26.947368c0 19.725474 36.675368 77.473684 92.133053 134.736842h88.602947c20.210526-14.147368 88.737684-71.464421 88.737685-198.602105 0-108.382316-93.237895-202.967579-168.151579-278.986105-49.502316-50.202947-88.576-89.842526-98.735158-128.61979-11.749053-44.732632-21.584842-112.586105-26.327579-148.318315H377.263158c-45.136842 0-89.519158 8.434526-121.802105 53.894736H431.157895v53.894737c-97.28 0-107.789474 113.071158-107.789474 161.684211v53.894737h53.894737v161.68421h-53.894737v-107.789474h-26.947368c-170.253474 0-188.631579-94.234947-188.631579-134.736842 0-31.043368 35.220211-72.326737 55.727158-93.722947 2.694737-14.686316 5.847579-28.348632 9.431579-41.013895H161.684211V215.578947h31.528421C239.642947 120.993684 317.224421 107.789474 377.263158 107.789474h185.640421l2.802526 23.794526c0.134737 1.050947 12.719158 106.657684 27.944421 164.756211 6.494316 24.872421 44.624842 63.514947 84.965053 104.448C760.481684 483.813053 862.315789 587.129263 862.315789 717.608421c0 92.375579-31.124211 155.028211-61.898105 194.425263C904.919579 892.146526 970.105263 803.004632 970.105263 673.684211c0-91.405474-42.819368-154.381474-84.237474-215.255579C847.791158 402.458947 808.421053 344.576 808.421053 269.473684c0-119.349895 87.093895-161.684211 161.68421-161.68421v53.894737c-32.417684 0-107.789474 10.509474-107.789474 107.789473 0 58.502737 31.555368 104.933053 68.096 158.639158C974.282105 492.597895 1024 565.679158 1024 673.684211c0 177.286737-108.301474 296.421053-269.473684 296.421052h-161.684211c-37.672421 0-53.894737 40.906105-53.894737 53.894737zM229.214316 269.473684a384.808421 384.808421 0 0 0-14.012632 58.341053l-1.401263 8.488421-6.090105 6.117053c-22.878316 22.932211-44.813474 52.601263-46.026105 62.275368 0 56.805053 53.76 75.264 107.789473 79.386947V431.157895c0-58.691368 13.473684-119.619368 46.511158-161.684211h-86.770526zM323.368421 1024h-53.894737c0-32.794947 25.869474-87.417263 77.446737-103.316211C313.020632 881.152 269.473684 822.433684 269.473684 781.473684c0-44.570947 36.271158-80.842105 80.842105-80.842105h45.16379A188.847158 188.847158 0 0 1 565.894737 592.842105h134.736842v53.894737h-134.736842c-74.293895 0-134.736842 60.442947-134.736842 134.736842v26.516211l-53.894737 0.377263V781.473684c0-9.162105 0.646737-18.135579 1.913263-26.947368H350.315789c-14.848 0-26.947368 12.072421-26.947368 26.947368 0 19.725474 36.675368 77.473684 92.133053 134.736842H431.157895v53.894737h-53.894737c-37.672421 0-53.894737 40.906105-53.894737 53.894737z" fill="#231F20" p-id="2576"></path></svg>