<?xml version="1.0" standalone="no"?><!DOCTYPE svg PUBLIC "-//W3C//DTD SVG 1.1//EN" "http://www.w3.org/Graphics/SVG/1.1/DTD/svg11.dtd"><svg t="1659926872933" class="icon" viewBox="0 0 1025 1024" version="1.1" xmlns="http://www.w3.org/2000/svg" p-id="1559" xmlns:xlink="http://www.w3.org/1999/xlink" width="200.1953125" height="200"><defs><style type="text/css"></style></defs><path d="M540.294737 754.526316h215.578947c20.210526 0 35.112421 1.374316 53.894737 4.581052 91.863579 15.656421 145.354105 67.691789 161.684211 86.069895V916.210526h53.894736V635.580632l-7.895579-7.895579c-9.269895-9.269895-36.513684-49.232842-44.032-196.527158H540.294737a161.684211 161.684211 0 0 0-161.684211 161.68421v131.098948c43.304421 20.210526 97.28 30.585263 161.684211 30.585263z" fill="#FFAF6E" p-id="1560"></path><path d="M1025.347368 635.580632V916.210526h-53.894736v-71.033263c-16.330105-18.405053-69.820632-70.413474-161.684211-86.069895V916.210526h-53.894737v-161.68421h-107.789473v215.578947h-53.894737V700.631579h161.68421c100.998737 0 172.570947 38.669474 215.578948 71.868632v-115.738948c-33.684211-43.627789-51.712-137.458526-53.706106-279.498105H701.978947c-76.934737 0-127.218526-26.219789-175.804631-51.550316a1556.048842 1556.048842 0 0 0-26.839579-13.743158c-26.839579 26.004211-66.209684 44.921263-115.738948 55.511579 24.441263 22.986105 60.874105 52.116211 106.469053 72.838737l-22.312421 49.044211c-76.584421-34.816-129.589895-88.926316-150.824421-113.125053-10.644211 0.619789-21.477053 1.024-32.687158 1.024a473.734737 473.734737 0 0 1-123.365053-15.952842l-93.022315 186.314105 68.581052 53.86779C167.882105 579.557053 237.891368 538.947368 324.715789 538.947368v53.894737c-95.986526 0-170.361263 62.490947-171.088842 63.137684l-16.78821 14.282106-136.838737-107.358316 109.729684-219.809684C46.430316 314.448842 1.347368 267.371789 1.347368 199.868632 1.347368 89.815579 121.586526 53.894737 163.031579 53.894737v53.894737c-14.120421 0-107.789474 17.165474-107.789474 92.079158C55.242105 290.465684 192.188632 323.368421 284.240842 323.368421c67.907368 0 122.421895-12.988632 157.696-35.624421-42.711579-14.336-95.097263-23.120842-169.337263-18.324211l-3.503158-53.786947c95.878737-6.117053 160.148211 8.515368 211.429053 28.833684C484.244211 235.439158 486.4 225.818947 486.4 215.578947c0-48.855579-57.829053-76.288-58.394947-76.557473l22.393263-49.017263C454.063158 91.648 540.294737 131.826526 540.294737 215.578947c0 18.566737-3.422316 35.84-9.997474 51.631158 7.060211 3.584 13.985684 7.168 20.776421 10.698106C597.854316 302.322526 638.248421 323.368421 701.978947 323.368421h269.473685v26.947368c0 214.689684 35.220211 266.590316 45.999157 277.369264l7.895579 7.895579z m-729.384421 25.141894l-98.789052 118.541474 86.797473 137.835789 45.594948-28.725894-65.913263-104.690527 37.052631-44.43621C358.642526 785.192421 439.080421 808.421053 540.294737 808.421053v-53.894737c-99.893895 0-175.077053-24.549053-223.474526-72.946527l-20.857264-20.857263z" fill="#231F20" p-id="1561"></path></svg>