<?xml version="1.0" standalone="no"?><!DOCTYPE svg PUBLIC "-//W3C//DTD SVG 1.1//EN" "http://www.w3.org/Graphics/SVG/1.1/DTD/svg11.dtd"><svg t="1659926969523" class="icon" viewBox="0 0 1024 1024" version="1.1" xmlns="http://www.w3.org/2000/svg" p-id="2284" xmlns:xlink="http://www.w3.org/1999/xlink" width="200" height="200"><defs><style type="text/css"></style></defs><path d="M732.079158 377.263158c-107.789474 0-186.421895 31.393684-281.869474 126.841263L180.331789 773.982316C257.724632 807.909053 348.725895 808.421053 485.052632 808.421053h96.013473c55.834947-34.411789 133.551158-53.894737 227.354948-53.894737h121.344L970.105263 680.555789V572.631579c0-94.315789-130.236632-195.368421-238.026105-195.368421z" fill="#FFBDD8" p-id="2285"></path><path d="M808.421053 700.631579v53.894737c-196.446316 0-323.368421 84.641684-323.368421 215.578947h-53.894737c0-163.705263 148.075789-269.473684 377.263158-269.473684z m-323.368421 107.789474v-53.894737c-158.342737 0-245.598316 0-319.649685-49.367579L158.612211 700.631579H80.842105c-21.692632 0-26.624-14.821053-26.947368-26.947368v-82.620632c84.156632-11.183158 161.684211-74.913684 161.68421-186.853053V215.578947H161.684211v161.684211H134.736842c-66.964211 0-134.736842 37.025684-134.736842 107.789474h53.894737c0-42.630737 52.870737-53.894737 80.842105-53.894737h24.629895C147.132632 504.912842 85.153684 538.947368 26.947368 538.947368H0v134.736843c0 32.498526 21.530947 80.842105 80.842105 80.842105h61.682527c32.687158 20.506947 67.125895 33.145263 105.957052 41.013895A232.879158 232.879158 0 0 0 215.578947 916.210526h53.894737c0-41.930105 14.012632-80.303158 39.424-112.505263C358.885053 808.151579 415.959579 808.421053 485.052632 808.421053z m-72.946527-342.420211L323.368421 554.738526V431.157895h-53.894737v253.682526l180.736-180.736-38.103579-38.103579zM323.368421 161.684211h-53.894737v190.032842a769.536 769.536 0 0 1 53.894737-49.098106V161.684211z m323.368421-53.894737c-72.623158 0-146.809263 23.336421-215.578947 58.637473V107.789474h-53.894737v154.138947C458.832842 205.392842 555.331368 161.684211 646.736842 161.684211c148.587789 0 269.473684 120.885895 269.473684 269.473684v235.654737L809.579789 862.315789h61.359158L970.105263 680.555789V431.157895c0-178.310737-145.057684-323.368421-323.368421-323.368421z" fill="#231F20" p-id="2286"></path></svg>