<?xml version="1.0" standalone="no"?><!DOCTYPE svg PUBLIC "-//W3C//DTD SVG 1.1//EN" "http://www.w3.org/Graphics/SVG/1.1/DTD/svg11.dtd"><svg t="1659926699940" class="icon" viewBox="0 0 1024 1024" version="1.1" xmlns="http://www.w3.org/2000/svg" p-id="1231" xmlns:xlink="http://www.w3.org/1999/xlink" width="200" height="200"><defs><style type="text/css"></style></defs><path d="M727.659789 431.157895c-132.581053 0-220.348632 47.454316-285.803789 154.354526-19.779368 32.309895-15.845053 76.503579-9.404632 96.579368 3.260632 10.159158 7.760842 18.647579 12.422737 25.546106C464.761263 737.010526 499.927579 754.526316 538.947368 754.526316h66.829474c1.158737 17.893053-1.967158 34.762105-15.144421 53.975579-12.692211 18.539789-37.807158 40.151579-56.32 54.810947 25.249684-0.673684 52.709053-0.997053 83.240421-0.997053C877.487158 862.315789 970.105263 711.922526 970.105263 571.176421 936.421053 512 882.364632 431.157895 727.659789 431.157895z" fill="#85C3DE" p-id="1232"></path><path d="M210.432 1012.897684l-43.573895-31.690105c106.954105-147.051789 185.317053-171.196632 423.828211-172.705684 21.396211-31.258947 16.249263-56.266105 9.377684-89.70779-3.557053-17.138526-7.221895-34.842947-7.221895-54.433684 0-68.958316 25.330526-104.636632 63.407158-136.973474l34.896842 41.040842c-29.453474 25.061053-44.409263 46.780632-44.409263 95.932632 0 14.093474 2.937263 28.402526 6.063158 43.546947 5.901474 28.510316 12.8 62.032842-1.131789 99.462737 166.373053-10.24 264.542316-96.902737 264.542315-236.193684C916.210526 418.330947 827.580632 323.368421 684.921263 323.368421c-83.644632 0-153.303579 29.696-174.187789 39.612632a224.875789 224.875789 0 0 1-20.533895 31.339789l-41.741474-34.115368 20.884211 17.057684-20.911158-16.976842C448.781474 359.828211 485.052632 314.287158 485.052632 262.736842c0-34.816-8.946526-60.766316-26.570106-77.069474-17.515789-16.249263-44.786526-24.602947-81.219368-24.953263V323.368421h-53.894737V109.783579l24.872421-1.913263c64.700632-4.931368 114.095158 7.895579 146.863158 38.238316C524.207158 173.056 538.947368 212.291368 538.947368 262.736842c0 11.102316-1.131789 21.908211-3.072 32.202105 37.268211-12.584421 89.842526-25.465263 149.045895-25.465263C858.165895 269.473684 970.105263 387.907368 970.105263 571.176421 970.105263 711.922526 877.487158 862.315789 617.552842 862.315789c-258.667789 0-311.942737 19.698526-407.120842 150.581895z m19.105684-256.835368c-12.045474 0-24.387368-0.565895-37.025684-1.64379l-22.096842-1.859368-2.425263-22.016C167.747368 728.144842 161.684211 672.444632 161.684211 631.026526c0-103.585684 21.450105-178.903579 53.894736-259.045052V107.789474h53.894737v274.782315l-2.021052 4.904422C235.439158 465.758316 215.578947 533.800421 215.578947 631.026526c0 22.878316 2.101895 51.442526 3.826527 70.979369 99.678316 2.802526 172.813474-35.408842 222.450526-116.493474l48.020211 24.090947c-11.237053 28.133053-11.371789 51.577263-0.377264 67.853474 9.701053 14.282105 28.645053 23.174737 49.448421 23.174737v53.894737c-39.019789 0-74.186105-17.515789-94.073263-46.888421a100.244211 100.244211 0 0 1-12.422737-25.546106c-53.221053 49.178947-121.128421 73.943579-202.913684 73.970527zM379.957895 525.473684c0-34.223158-13.231158-44.463158-29.642106-44.463158s-29.642105 10.24-29.642105 44.463158c0 34.250105 13.231158 44.463158 29.642105 44.463158s29.642105-10.213053 29.642106-44.463158z" fill="#231F20" p-id="1233"></path></svg>