<?xml version="1.0" standalone="no"?><!DOCTYPE svg PUBLIC "-//W3C//DTD SVG 1.1//EN" "http://www.w3.org/Graphics/SVG/1.1/DTD/svg11.dtd"><svg t="1659926991260" class="icon" viewBox="0 0 1024 1024" version="1.1" xmlns="http://www.w3.org/2000/svg" p-id="2719" xmlns:xlink="http://www.w3.org/1999/xlink" width="200" height="200"><defs><style type="text/css"></style></defs><path d="M891.688421 506.421895C877.244632 455.033263 862.315789 401.893053 862.315789 323.368421V116.224l-323.368421 195.745684V323.368421c0 78.524632 14.928842 131.664842 29.372632 183.053474 12.611368 44.894316 24.522105 87.282526 24.522105 140.314947 0 101.618526-77.931789 176.693895-168.286316 203.991579l5.416422 11.587368h215.578947c24.333474 0 43.385263-0.242526 58.556631-2.128842C811.52 846.821053 916.210526 764.550737 916.210526 646.736842c0-53.032421-11.910737-95.420632-24.522105-140.314947z" fill="#FF8787" p-id="2720"></path><path d="M673.684211 354.357895c-16.384 0-29.642105-10.213053-29.642106-44.463158 0-34.223158 13.231158-44.463158 29.642106-44.463158s29.642105 10.24 29.642105 44.463158c0 34.250105-13.258105 44.463158-29.642105 44.463158zM540.106105 970.105263l-50.58021-107.789474h156.05221l50.607158 107.789474h59.553684l-51.60421-109.918316C811.52 846.821053 916.210526 764.550737 916.210526 646.736842c0-53.032421-11.910737-95.420632-24.522105-140.314947C877.244632 455.033263 862.315789 401.893053 862.315789 323.368421V107.789474c0-59.445895-48.343579-107.789474-107.789473-107.789474a107.924211 107.924211 0 0 0-107.789474 106.172632 100.890947 100.890947 0 0 0-24.117895-3.314527 88.710737 88.710737 0 0 0-88.602947 88.602948c0 20.668632 5.227789 39.720421 10.671158 53.921684l-99.489684 59.688421 93.749894 14.470737V377.263158c0 14.416842-5.901474 21.692632-33.360842 49.152l-11.129263 11.129263C398.228211 326.521263 324.985263 269.473684 215.740632 269.473684 96.768 269.473684 0 366.241684 0 485.214316V646.736842h53.894737v-161.522526A162.007579 162.007579 0 0 1 215.740632 323.368421c82.081684 0 140.422737 36.244211 240.64 152.252632l-38.615579 38.615579C367.804632 461.285053 323.098947 431.157895 259.584 431.157895A151.983158 151.983158 0 0 0 107.789474 582.952421V754.526316h53.894737v-171.573895A98.007579 98.007579 0 0 1 259.584 485.052632c46.322526 0 79.629474 20.911158 137.027368 86.016l18.970948 21.530947 128.080842-128.080842C572.200421 435.981474 592.842105 415.366737 592.842105 377.263158v-97.926737l23.309474-14.120421-13.662316-23.04c-0.161684-0.242526-14.578526-24.899368-14.578526-50.688 0-19.132632 15.575579-34.708211 34.70821-34.708211 5.093053 0 26.785684 3.179789 39.558737 18.647579l26.327579 46.026106 39.774316-24.090948-20.372211-49.367579C704.754526 140.449684 700.631579 117.517474 700.631579 107.789474c0-29.722947 24.171789-53.894737 53.894737-53.894737s53.894737 24.171789 53.894737 53.894737v215.578947c0 85.935158 16.680421 145.300211 31.366736 197.632C851.887158 564.008421 862.315789 601.141895 862.315789 646.736842c0 95.285895-99.408842 161.684211-188.631578 161.684211h-209.461895l-68.419369-145.704421C375.242105 618.954105 338.108632 592.842105 296.448 592.842105A80.976842 80.976842 0 0 0 215.578947 673.711158V862.315789h53.894737v-188.604631c0-14.874947 12.099368-26.974316 26.974316-26.974316 20.533895 0 38.965895 14.147368 50.553263 38.858105L480.579368 970.105263h59.526737z" fill="#231F20" p-id="2721"></path></svg>