<?xml version="1.0" standalone="no"?><!DOCTYPE svg PUBLIC "-//W3C//DTD SVG 1.1//EN" "http://www.w3.org/Graphics/SVG/1.1/DTD/svg11.dtd"><svg t="1543199918104" class="icon" style="" viewBox="0 0 1024 1024" version="1.1" xmlns="http://www.w3.org/2000/svg" p-id="1019" xmlns:xlink="http://www.w3.org/1999/xlink" width="32" height="32"><defs><style type="text/css"></style></defs><path d="M953.86906294 539.61681602C969.12140865 539.61681602 981.48588027 527.25234571 981.48588027 512 981.48588027 496.74765429 969.12140865 484.38318398 953.86906294 484.38318398L70.13093706 484.38318398C54.87859006 484.38318398 42.51411973 496.74765429 42.51411973 512 42.51411973 527.25234571 54.87859006 539.61681602 70.13093706 539.61681602L953.86906294 539.61681602Z" fill="#999999" p-id="1020"></path><path d="M484.38318398 953.86906294C484.38318398 969.12140865 496.74765429 981.48588027 512 981.48588027 527.25234571 981.48588027 539.61681602 969.12140865 539.61681602 953.86906294L539.61681602 70.13093706C539.61681602 54.87859006 527.25234571 42.51411973 512 42.51411973 496.74765429 42.51411973 484.38318398 54.87859006 484.38318398 70.13093706L484.38318398 953.86906294Z" fill="#999999" p-id="1021"></path></svg>