<?xml version="1.0" standalone="no"?><!DOCTYPE svg PUBLIC "-//W3C//DTD SVG 1.1//EN" "http://www.w3.org/Graphics/SVG/1.1/DTD/svg11.dtd"><svg t="1543202839771" class="icon" style="" viewBox="0 0 1024 1024" version="1.1" xmlns="http://www.w3.org/2000/svg" p-id="1244" xmlns:xlink="http://www.w3.org/1999/xlink" width="32" height="32"><defs><style type="text/css"></style></defs><path d="M905.75000027 487.39062473L582.31249973 181.53124973c-14.06250027-14.06250027-35.15625027-14.06250027-49.21874973 0-14.06250027 14.06250027-14.06250027 35.15625027 0 49.21875054l260.15624973 246.09374946H142.859375c-21.09375 0-35.15625027 14.06250027-35.15625027 35.15625027s14.06250027 35.15625027 35.15625027 35.15625027H793.24999973l-260.15624973 246.09374946c-14.06250027 14.06250027-14.06250027 35.15625027 0 49.21875054 7.03124973 7.03124973 17.57812473 10.546875 24.60937527 10.546875 7.03124973 0 17.57812473-3.51562527 24.60937446-10.546875l323.43750054-305.859375c7.03124973-7.03124973 10.546875-17.57812473 10.546875-24.60937527s-3.51562527-17.57812473-10.546875-24.60937527z" fill="#ffffff" p-id="1245"></path></svg>