<?xml version="1.0" standalone="no"?><!DOCTYPE svg PUBLIC "-//W3C//DTD SVG 1.1//EN" "http://www.w3.org/Graphics/SVG/1.1/DTD/svg11.dtd"><svg t="1543202848781" class="icon" style="" viewBox="0 0 1024 1024" version="1.1" xmlns="http://www.w3.org/2000/svg" p-id="1385" xmlns:xlink="http://www.w3.org/1999/xlink" width="32" height="32"><defs><style type="text/css"></style></defs><path d="M118.24999973 554.18750027L441.68750027 860.04687527c14.06250027 14.06250027 35.15625027 14.06250027 49.21874973 0 14.06250027-14.06250027 14.06250027-35.15625027 0-49.21875055l-260.15624973-246.09374945L881.140625 564.73437527c21.09375 0 35.15625027-14.06250027 35.15625027-35.15625027s-14.06250027-35.15625027-35.15625027-35.15625028L230.75000027 494.42187472l260.15624973-246.09374945c14.06250027-14.06250027 14.06250027-35.15625027 0-49.21875055-7.03124973-7.03124973-17.57812473-10.546875-24.60937528-10.546875-7.03124973 0-17.57812473 3.51562527-24.60937445 10.546875l-323.43750053 305.859375c-7.03124973 7.03124973-10.546875 17.57812473-10.54687501 24.60937528s3.51562527 17.57812473 10.546875 24.60937527z" fill="#ffffff" p-id="1386"></path></svg>