<?xml version="1.0" standalone="no"?><!DOCTYPE svg PUBLIC "-//W3C//DTD SVG 1.1//EN" "http://www.w3.org/Graphics/SVG/1.1/DTD/svg11.dtd"><svg t="1668342330798" class="icon" viewBox="0 0 1024 1024" version="1.1" xmlns="http://www.w3.org/2000/svg" p-id="2338" xmlns:xlink="http://www.w3.org/1999/xlink" width="200" height="200"><path d="M309.936 885.784L177.5 1004.04l32.483-365.365c0.77-9.209 1.502-18.457 3.891-26.125 2.428-7.667 4.933-13.794 9.133-18.457 0 0 8.554-7.668 22.657-21.5L286.7 532.71l50.747 53.714-27.512 299.36zM656.65 901.16l56.065 61.42L645.939 1024h-451.37l138.178-122.841h323.904z m33.985-348.488c-16.954 16.877-30.363 21.501-65.659 21.501H360.953l-55.91-59.88 43.695-44.504c5.626-6.127 12.87-10.75 20.268-13.833 7.398-3.045 13.41-4.586 21.077-4.586h290.188l55.872 59.918-45.507 41.384z m-307.758-429.83l-55.91-59.917L392.047 0H705.24c30.672 0 45.199 7.668 62.269 27.628l20.576 24.583-78.26 70.63H382.879z m342.553 19.922l79.762-70.63 27.243 30.71c3.352 3.083 7.09 10.75 11.097 21.501 1.927 4.624 2.35 9.248 2.736 13.833 0.54 6.127-0.038 16.878-0.385 30.71l-21.578 227.188c-2.197 27.666-7.36 38.417-27.127 58.338l-42.579 39.92-55.756-58.338 26.587-293.232z" p-id="2339"></path></svg>